<?xml version="1.0" encoding="UTF-8" standalone="no"?>
<!-- Created with Inkscape (http://www.inkscape.org/) -->

<svg
   width="52.916668mm"
   height="52.916668mm"
   viewBox="0 0 52.916668 52.916668"
   version="1.1"
   id="svg5"
   sodipodi:docname="tibinek_3.svg"
   inkscape:version="1.1.2 (0a00cf5339, 2022-02-04)"
   xmlns:inkscape="http://www.inkscape.org/namespaces/inkscape"
   xmlns:sodipodi="http://sodipodi.sourceforge.net/DTD/sodipodi-0.dtd"
   xmlns="http://www.w3.org/2000/svg"
   xmlns:svg="http://www.w3.org/2000/svg">
  <sodipodi:namedview
     id="namedview7"
     pagecolor="#ffffff"
     bordercolor="#666666"
     borderopacity="1.0"
     inkscape:pageshadow="2"
     inkscape:pageopacity="0.0"
     inkscape:pagecheckerboard="0"
     inkscape:document-units="mm"
     showgrid="false"
     inkscape:zoom="0.98520765"
     inkscape:cx="-391.28807"
     inkscape:cy="-17.255246"
     inkscape:window-width="1920"
     inkscape:window-height="991"
     inkscape:window-x="0"
     inkscape:window-y="0"
     inkscape:window-maximized="1"
     inkscape:current-layer="layer1" />
  <defs
     id="defs2" />
  <g
     inkscape:label="Layer 1"
     inkscape:groupmode="layer"
     id="layer1"
     transform="translate(-101.50032,-93.250153)">
    <path
       id="path196"
       style="fill:#cccccc;stroke-width:0.279487"
       d="m 127.95865,104.36264 a 23.15104,13.229166 0 0 0 -23.15104,13.22917 23.15104,13.229166 0 0 0 3.20601,6.70347 l -0.63511,13.63844 16.2264,-7.30085 -0.0475,-0.0816 a 23.15104,13.229166 0 0 0 4.40128,0.26975 23.15104,13.229166 0 0 0 23.15104,-13.22917 23.15104,13.229166 0 0 0 -23.15104,-13.22917 z m -10.52597,9.92188 a 3.3072916,3.3072916 0 0 1 3.30729,3.30729 3.3072916,3.3072916 0 0 1 -3.30729,3.30729 3.3072916,3.3072916 0 0 1 -3.30729,-3.30729 3.3072916,3.3072916 0 0 1 3.30729,-3.30729 z m 10.58333,0 a 3.3072916,3.3072916 0 0 1 3.3073,3.30729 3.3072916,3.3072916 0 0 1 -3.3073,3.30729 3.3072916,3.3072916 0 0 1 -3.30729,-3.30729 3.3072916,3.3072916 0 0 1 3.30729,-3.30729 z m 10.58334,0 a 3.3072916,3.3072916 0 0 1 3.30729,3.30729 3.3072916,3.3072916 0 0 1 -3.30729,3.30729 3.3072916,3.3072916 0 0 1 -3.30729,-3.30729 3.3072916,3.3072916 0 0 1 3.30729,-3.30729 z" />
  </g>
</svg>
